<?xml version="1.0" standalone="no"?>
<!DOCTYPE svg PUBLIC "-//W3C//DTD SVG 20010904//EN"
 "http://www.w3.org/TR/2001/REC-SVG-20010904/DTD/svg10.dtd">
<svg version="1.0" xmlns="http://www.w3.org/2000/svg"
 width="545.000000pt" height="545.000000pt" viewBox="0 0 545.000000 545.000000"
 preserveAspectRatio="xMidYMid meet">
<metadata>
Created by potrace 1.11, written by Peter Selinger 2001-2013
</metadata>
<g transform="translate(0.000000,545.000000) scale(0.100000,-0.100000)"
fill="#000000" stroke="none">
<path d="M2698 5444 c-2 -1 -59 -5 -128 -8 -69 -3 -136 -8 -150 -10 -14 -3
-49 -7 -78 -10 -29 -3 -56 -7 -60 -9 -4 -3 -28 -8 -54 -11 -26 -4 -55 -9 -64
-13 -9 -3 -23 -7 -32 -8 -21 -2 -63 -12 -129 -31 -29 -9 -58 -17 -65 -18 -7
-1 -38 -11 -68 -21 -30 -11 -57 -20 -60 -20 -3 -1 -18 -7 -33 -13 -16 -7 -31
-12 -34 -12 -3 0 -21 -7 -41 -16 -21 -9 -57 -26 -82 -37 -66 -29 -179 -86
-225 -113 -22 -13 -52 -29 -67 -35 -16 -6 -28 -14 -28 -18 0 -3 -20 -17 -45
-31 -25 -14 -45 -28 -45 -32 0 -5 -7 -8 -15 -8 -8 0 -15 -4 -15 -10 0 -5 -5
-10 -11 -10 -6 0 -17 -6 -24 -12 -18 -16 -31 -26 -80 -62 -22 -16 -47 -37 -56
-45 -9 -9 -34 -29 -54 -46 -86 -68 -260 -248 -340 -349 -16 -21 -38 -47 -47
-58 -9 -10 -34 -45 -55 -76 -21 -31 -40 -59 -43 -62 -27 -25 -249 -430 -250
-455 0 -3 -7 -21 -15 -41 -8 -20 -15 -38 -15 -40 0 -1 -5 -15 -12 -31 -6 -15
-12 -32 -14 -38 -1 -5 -16 -52 -33 -104 -17 -52 -28 -97 -26 -99 3 -3 0 -11
-5 -18 -6 -6 -13 -25 -15 -40 -2 -16 -9 -49 -16 -74 -6 -25 -12 -57 -14 -72
-2 -15 -8 -53 -14 -85 -43 -245 -42 -633 3 -853 1 -8 6 -35 10 -60 11 -65 14
-85 16 -87 3 -3 2 -2 15 -58 10 -47 12 -54 15 -57 1 -3 4 -12 14 -53 2 -11 9
-33 16 -50 6 -16 12 -32 12 -35 1 -8 5 -22 27 -85 21 -59 26 -70 52 -130 7
-16 13 -32 13 -35 1 -3 16 -35 34 -72 18 -37 32 -71 31 -74 0 -4 3 -10 8 -13
19 -14 43 -79 40 -113 -1 -21 -4 -38 -7 -38 -3 0 -6 -13 -7 -28 -1 -15 -5 -41
-8 -57 -3 -17 -8 -48 -11 -70 -2 -22 -9 -62 -14 -90 -5 -27 -12 -66 -14 -85
-3 -19 -7 -44 -9 -55 -5 -23 -17 -95 -22 -128 -1 -12 -6 -38 -9 -57 -11 -57
-29 -170 -41 -245 -1 -11 -5 -31 -9 -45 -3 -14 -8 -43 -10 -65 -3 -22 -7 -51
-10 -65 -3 -14 -8 -41 -10 -60 -3 -19 -10 -62 -16 -95 -5 -33 -10 -61 -10 -63
0 -2 15 -1 32 2 18 2 33 5 33 6 0 0 16 3 35 5 19 2 48 6 64 9 16 3 50 8 75 12
25 4 55 9 66 11 11 3 29 6 40 8 85 13 211 34 300 49 69 12 106 18 217 37 64
10 129 21 145 24 47 7 140 22 183 30 95 17 109 16 167 -12 32 -15 61 -26 66
-25 4 1 7 -3 7 -8 0 -6 4 -10 10 -10 5 0 40 -14 77 -31 38 -17 75 -33 83 -35
8 -2 53 -17 100 -35 47 -17 92 -32 100 -34 8 -2 49 -13 90 -24 77 -21 191 -45
270 -57 25 -3 56 -8 70 -10 41 -7 121 -14 195 -19 39 -3 81 -6 95 -8 14 -1 35
1 48 5 12 4 22 4 22 0 0 -4 15 -7 33 -6 46 3 195 15 242 20 109 11 131 14 205
29 14 2 36 7 50 9 102 19 210 48 330 90 58 20 110 38 115 40 19 6 69 27 133
56 35 17 65 30 66 30 2 0 50 25 107 56 130 71 289 174 289 187 0 6 3 8 6 4 6
-6 95 60 102 76 2 4 7 7 12 7 8 0 37 24 108 88 20 17 40 32 44 32 4 0 8 7 8
15 0 8 4 15 8 15 15 0 145 135 222 229 19 24 41 49 48 56 6 8 12 16 12 20 0 3
9 16 21 28 23 24 159 224 159 233 0 3 8 18 19 32 18 26 125 232 126 242 0 3
11 26 24 52 12 27 24 54 25 60 2 7 9 27 15 43 7 17 14 35 15 40 2 6 6 19 10
30 5 11 15 38 23 60 8 22 17 48 19 57 2 10 6 26 9 35 31 120 47 184 51 213 3
19 8 44 11 55 4 11 7 31 8 45 1 14 5 39 8 55 12 56 23 206 28 380 1 33 -12
256 -16 285 -3 19 -7 53 -9 75 -14 134 -85 432 -133 555 -4 8 -7 17 -8 20 -1
3 -5 14 -10 25 -4 11 -19 47 -32 80 -37 90 -125 269 -137 277 -6 4 -8 8 -4 8
4 0 -4 16 -17 36 -13 19 -27 44 -30 55 -4 10 -11 19 -16 19 -5 0 -9 6 -9 13 0
7 -9 23 -20 35 -11 12 -20 25 -20 29 0 4 -9 19 -20 33 -11 14 -53 69 -95 123
-99 129 -230 271 -336 362 -82 72 -149 125 -149 120 0 -3 -11 5 -24 19 -13 15
-28 26 -35 26 -6 0 -11 4 -11 9 0 5 -8 12 -17 15 -10 3 -30 17 -45 31 -16 14
-28 23 -28 19 0 -4 -8 0 -17 8 -21 18 -152 98 -162 98 -3 0 -22 10 -41 22 -19
12 -37 23 -40 23 -3 1 -39 17 -80 37 -305 148 -663 239 -1000 254 -63 3 -130
7 -147 8 -18 2 -34 2 -35 0z"/>
</g>
</svg>
